<svg xmlns="http://www.w3.org/2000/svg" viewBox="0 0 1732.9 378.69"><g id="Calque_2" data-name="Calque 2"><g id="Layer_1" data-name="Layer 1"><path d="M12.23,137.33q-6.45-5.25-6.45-14.54,0-15.48,16.9-23.56T62,87.53v-9q0-13.24-4.33-19.26t-14.18-6q-8.16,0-12.4,3.1a35.78,35.78,0,0,0-8.16,8.77,29.09,29.09,0,0,1-4.25,5.34,6.75,6.75,0,0,1-4.75,1.72C10.65,72.22,9,70.61,9,67.4q0-3.27,4.42-7.31a36.13,36.13,0,0,1,12.31-6.88,51.56,51.56,0,0,1,17.59-2.84q13.24,0,20.55,6.1T71,78.58l-.16,38.36q0,10.85,1.24,15.32c.84,3,2.53,4.47,5.09,4.47s5.33-1.26,8-3.78l1.67,2.4q-7.5,7.23-14.66,7.23-6.35,0-8.25-4.73A33.18,33.18,0,0,1,62,125.54V125h-.51a65.76,65.76,0,0,1-15.71,13.16,34.06,34.06,0,0,1-17.07,4.39Q18.69,142.58,12.23,137.33Zm7.71-4.75q4.56,4.29,12.82,4.3,15.65,0,29.24-15.83l.18-29.93a111.59,111.59,0,0,0-32.69,10q-14.11,7.06-14.11,20Q15.38,128.28,19.94,132.58Z"/><path d="M108.56,135.67c2.23-1,3.86-3,4.9-6s1.54-7.83,1.54-14.44V66H98V62.75a32.15,32.15,0,0,0,14-3.1q6.5-3.1,8.72-8.62H124V76h.51A55.85,55.85,0,0,1,136,58.61Q143.33,51,150.51,51a9.37,9.37,0,0,1,6.68,2.41,7.57,7.57,0,0,1,2.56,5.69,5.71,5.71,0,0,1-1.54,4.06,5.15,5.15,0,0,1-3.93,1.63c-1.6,0-3.42-.8-5.48-2.41a21.62,21.62,0,0,0-3-1.82,7,7,0,0,0-3-.59q-3.76,0-8.2,5.08a44,44,0,0,0-7.53,12.76A39,39,0,0,0,124,92.41v22q0,10.59,1.18,15.17t4.36,6c2.13.94,5.61,1.41,10.42,1.41h4v3H98v-2.91Q105.22,137.12,108.56,135.67Z"/><path d="M190,138a39.55,39.55,0,0,1-15.65-15.15q-6-10-6-24a50,50,0,0,1,6-24.52,46.57,46.57,0,0,1,15.91-17.2,38.47,38.47,0,0,1,20.91-6.28,55.42,55.42,0,0,1,16.25,2.24,32.87,32.87,0,0,1,11.45,5.67Q243,62.22,243,65.65a4.47,4.47,0,0,1-1.46,3.53,6.18,6.18,0,0,1-4.21,1.3A7.34,7.34,0,0,1,232.64,69a26.24,26.24,0,0,1-4.3-4.56A34.32,34.32,0,0,0,220.51,57q-4-2.66-11.78-2.66A25.64,25.64,0,0,0,194.11,59q-6.88,4.63-11.19,14t-4.3,22.45a48.91,48.91,0,0,0,4.56,21.5,36.3,36.3,0,0,0,12.73,14.88,33.26,33.26,0,0,0,18.84,5.43,34.75,34.75,0,0,0,19.61-5.69,50.92,50.92,0,0,0,14.8-15.31l2.06,1.38q-7.92,12.74-17.46,19.09t-23.48,6.37A43.06,43.06,0,0,1,190,138Z"/><path d="M267.56,135.64q3.35-1.45,4.9-6T274,115.09V16H257V12.89a32,32,0,0,0,14.09-3.14Q277.6,6.62,279.84,1H284v66.4a66.89,66.89,0,0,1,16.91-11.87,42.51,42.51,0,0,1,19.13-5q12,0,18.95,7.48t7,24v33q0,10.48,1.12,14.88t4.54,5.76c2.3.92,6.07,1.37,11.34,1.37V140H320V137.1q7.22,0,10.56-1.46t4.9-6q1.55-4.55,1.54-14.53V82.26q0-12.14-5.47-18.63T316,57.13a39.75,39.75,0,0,0-16.24,3.93A56.35,56.35,0,0,0,284,71.66v43.43q0,10.48,1.05,14.88c.7,2.92,2.12,4.84,4.28,5.76S295,137.1,300,137.1V140H257V137.1Q264.22,137.1,267.56,135.64Z"/><path d="M382.56,135.64q3.35-1.45,4.9-6T389,115.09V66H372V62.89a32,32,0,0,0,14.09-3.14q6.51-3.14,8.75-8.72H398v64.09q0,10.48,1.12,14.86t4.54,5.75c2.3.92,6.07,1.38,11.34,1.38V140H372V137.1Q379.22,137.1,382.56,135.64Zm4.14-108a8.12,8.12,0,0,1-2.32-5.84,8.13,8.13,0,0,1,2.32-5.85,8.1,8.1,0,0,1,11.53,0,8.09,8.09,0,0,1,2.32,5.85,8.08,8.08,0,0,1-2.32,5.84,8.1,8.1,0,0,1-11.53,0Z"/><path d="M465.91,139.32a20.19,20.19,0,0,1-12.57,3.87q-18.34,0-18.34-22.54V58H420V55.11q11.5,0,15.8-8T441.13,24H444V54h26v4H444v60.56q0,19.6,12.91,19.61,8.65,0,17.33-13.59l2.37,1.89Q471,135.45,465.91,139.32Z"/><path d="M509.62,137.69a37.84,37.84,0,0,1-15.57-15q-5.93-10.07-5.93-25,0-14.28,5.93-25a42.5,42.5,0,0,1,15.74-16.52A43.09,43.09,0,0,1,548.59,54a25.92,25.92,0,0,1,11.26,9.81,25.52,25.52,0,0,1,3.79,13.59,16.75,16.75,0,0,1-.86,6.28,4.85,4.85,0,0,1-3.44,2.67,35.34,35.34,0,0,1-8.26.68h-52a57.69,57.69,0,0,0-.52,7.92,48.94,48.94,0,0,0,4.56,21.5,36.3,36.3,0,0,0,12.73,14.88,33.23,33.23,0,0,0,18.84,5.42,34.37,34.37,0,0,0,19.53-5.68A51.5,51.5,0,0,0,569,115.76l2.06,1.38q-7.92,12.74-17.46,19.09T530.1,142.6A44.39,44.39,0,0,1,509.62,137.69ZM533.54,84q8.76,0,12.64-.43T551.43,82c.91-.8,1.37-2.17,1.37-4.12q0-10.66-5.93-17.47t-17.12-6.79q-10.66,0-19.19,8.09T499.47,84Z"/><path d="M604.07,138a39.57,39.57,0,0,1-15.66-15.15q-6-10-6-24a50,50,0,0,1,6-24.52,46.57,46.57,0,0,1,15.91-17.2,38.47,38.47,0,0,1,20.91-6.28,55.42,55.42,0,0,1,16.25,2.24,32.87,32.87,0,0,1,11.45,5.67q4.13,3.45,4.12,6.88a4.44,4.44,0,0,1-1.46,3.53,6.17,6.17,0,0,1-4.21,1.3A7.34,7.34,0,0,1,646.73,69a26.24,26.24,0,0,1-4.3-4.56A34.11,34.11,0,0,0,634.6,57q-4-2.66-11.78-2.66A25.64,25.64,0,0,0,608.2,59Q601.32,63.58,597,73t-4.3,22.45a48.9,48.9,0,0,0,4.55,21.5A36.25,36.25,0,0,0,610,131.8a33.21,33.21,0,0,0,18.83,5.43,34.75,34.75,0,0,0,19.61-5.69,50.92,50.92,0,0,0,14.8-15.31l2.07,1.38q-7.94,12.74-17.47,19.09t-23.48,6.37A43,43,0,0,1,604.07,138Z"/><path d="M718.91,139.32a20.19,20.19,0,0,1-12.57,3.87q-18.35,0-18.34-22.54V58H673V55.11q11.5,0,15.8-8T694.13,24H697V54h26v4H697v60.56q0,19.6,12.91,19.61,8.65,0,17.33-13.59l2.37,1.89Q724,135.45,718.91,139.32Z"/><path d="M760,136.36q-7-6.72-7-23V65H736V62.36a33.28,33.28,0,0,0,14.08-3c4.35-2,7.27-4.78,8.76-8.34H762v60.73q0,12.38,5.42,18.83t15.93,6.46a35.71,35.71,0,0,0,15.58-3.88A59.53,59.53,0,0,0,814,122.59V65H797V62.36a33.28,33.28,0,0,0,14.08-3c4.35-2,7.27-4.78,8.75-8.34H823v65.54q0,9.14,1.36,12.74a5.29,5.29,0,0,0,5.43,3.61,27.48,27.48,0,0,0,8.84-2.07l1,3.44-23.09,7.4a16.63,16.63,0,0,1-1.87-5.94,50.51,50.51,0,0,1-.68-8.51v-.86l-.18.18a64.36,64.36,0,0,1-16.23,11.77,39.75,39.75,0,0,1-18.3,4.72Q766.92,143.05,760,136.36Z"/><path d="M860.56,135.67c2.23-1,3.86-3,4.9-6s1.54-7.83,1.54-14.44V66H850V62.75a34.48,34.48,0,0,0,14.57-3.1q6.73-3.1,9-8.62H877V76h.53a55.6,55.6,0,0,1,11.9-17.42Q897.07,51,904.53,51a9.9,9.9,0,0,1,6.93,2.41,7.45,7.45,0,0,1,2.67,5.69,5.6,5.6,0,0,1-1.61,4.06,5.44,5.44,0,0,1-4.08,1.63q-2.49,0-5.68-2.41a23.21,23.21,0,0,0-3.11-1.82,7.54,7.54,0,0,0-3.11-.59q-3.91,0-8.53,5.08a43.76,43.76,0,0,0-7.81,12.76A37.73,37.73,0,0,0,877,92.41v22q0,10.59,1.18,15.17t4.36,6c2.13.94,5.61,1.41,10.42,1.41h4v3H850v-2.91Q857.21,137.12,860.56,135.67Z"/><path d="M943.33,137.69a37.72,37.72,0,0,1-15.57-15q-5.94-10.07-5.93-25,0-14.28,5.93-25A42.36,42.36,0,0,1,943.5,56.15,43.07,43.07,0,0,1,982.29,54a26,26,0,0,1,11.27,9.81,25.52,25.52,0,0,1,3.79,13.59,17,17,0,0,1-.86,6.28A4.87,4.87,0,0,1,993,86.35a35.3,35.3,0,0,1-8.25.68h-52a57.72,57.72,0,0,0-.51,7.92,48.93,48.93,0,0,0,4.55,21.5,36.25,36.25,0,0,0,12.74,14.88,33.21,33.21,0,0,0,18.84,5.42A34.36,34.36,0,0,0,988,131.07a51.38,51.38,0,0,0,14.71-15.31l2.06,1.38q-7.9,12.74-17.46,19.09T963.8,142.6A44.35,44.35,0,0,1,943.33,137.69ZM967.24,84q8.78,0,12.65-.43c2.58-.28,4.32-.83,5.24-1.64s1.38-2.17,1.38-4.12q0-10.66-5.94-17.47t-17.11-6.79q-10.68,0-19.19,8.09T933.18,84Z"/><path d="M1019.36,112.45l2.93-.69q3.09,13.93,9.81,21.08t18.4,7.14q9.46,0,15.66-5.17t6.19-13.93a17.42,17.42,0,0,0-5.84-13.42q-5.85-5.34-18.41-8.95-13.42-3.95-20.14-9.63t-6.7-15.14a21.18,21.18,0,0,1,3.26-11.53A23.06,23.06,0,0,1,1034,54a31.46,31.46,0,0,1,14.28-3.1,41,41,0,0,1,14.27,2.75,14.54,14.54,0,0,0,4.3,1.21q3.11,0,2.76-5.34l2.41-.34,6.54,29.08-2.93.51q-3.27-11.36-10.32-18.06A24.47,24.47,0,0,0,1047.75,54q-8.25,0-13.42,4.64T1029.17,71a14.31,14.31,0,0,0,5,10.92q5,4.57,18.06,8.52,14.46,4.3,21,11a22.13,22.13,0,0,1,6.54,16,22.58,22.58,0,0,1-4.13,13.5,27.72,27.72,0,0,1-10.75,8.95,31.63,31.63,0,0,1-13.85,3.18,45.43,45.43,0,0,1-11.18-1.12,36.64,36.64,0,0,1-7.91-3c-.35-.12-1-.38-1.9-.78a6.49,6.49,0,0,0-2.58-.61c-2.41,0-3.73,1.62-4,4.83l-2.41.17Z"/><path d="M1591.86,138.17a38.3,38.3,0,0,1-16.08-15q-6.1-10.16-6.1-25.3,0-15,6-25.62a39.25,39.25,0,0,1,16.25-16,51.25,51.25,0,0,1,44.65-.42,38.22,38.22,0,0,1,16.08,15q6.1,10.17,6.11,25.29t-6,25.64a39.43,39.43,0,0,1-16.26,16,48.28,48.28,0,0,1-22.62,5.33A49.26,49.26,0,0,1,1591.86,138.17Zm-7-19.09a36.61,36.61,0,0,0,12,15.48,29,29,0,0,0,17.38,5.58,29.59,29.59,0,0,0,17.12-5.24,35.78,35.78,0,0,0,12.13-15q4.47-9.73,4.47-22.63a55.73,55.73,0,0,0-4.3-22.45,36.92,36.92,0,0,0-12-15.48,28.58,28.58,0,0,0-17.29-5.6A30.06,30.06,0,0,0,1597.2,59,35.46,35.46,0,0,0,1585,74q-4.47,9.72-4.47,22.62A55.78,55.78,0,0,0,1584.81,119.08Z"/><path d="M1669,58V55.1a43.14,43.14,0,0,0,10.92-1.05,8.46,8.46,0,0,0,5.42-4c1.1-2,1.66-5.06,1.66-9.26V28.26q0-15,6.69-21.64T1711.33,0q9.33,0,15.44,3.43t6.13,8a4.76,4.76,0,0,1-1.47,3.76,5.44,5.44,0,0,1-3.75,1.31,5.51,5.51,0,0,1-3.68-1.31,26,26,0,0,1-3.68-4.08,25.79,25.79,0,0,0-5.72-6,12.8,12.8,0,0,0-7.67-2.12,11.54,11.54,0,0,0-8.5,3.43Q1695,9.81,1695,17.81V54h26v4h-26v56.42q0,10.59,1.18,15.17c.78,3.06,2.24,5.06,4.36,6S1706.15,137,1711,137h4v3h-46v-2.92q7.21,0,10.56-1.47c2.24-1,3.86-3,4.89-6s1.55-7.88,1.55-14.52V58Z"/><path d="M10.58,370.72q3.47-1.37,4.95-6c1-3.09,1.47-8,1.47-14.62V258H0v-2.67a32.68,32.68,0,0,0,14-3c4.29-2,7.19-4.78,8.67-8.34H25v15h1a56,56,0,0,1,15-11.48,40.15,40.15,0,0,1,18.67-4.21A38.92,38.92,0,0,1,78.41,248a34.55,34.55,0,0,1,14,14.45q5.32,9.81,5.33,24.26,0,15.65-5.77,26.66A39.24,39.24,0,0,1,76.18,330a45.56,45.56,0,0,1-22.45,5.58C42.94,335.54,26,328,26,328v21.47q0,10.57,1.18,15.17t4.36,6c2.13.95,5.61,1.42,10.42,1.42h4v3H0V372.1Q7.11,372.1,10.58,370.72Zm28.15-41.8a34,34,0,0,0,15.14,3.53,30.17,30.17,0,0,0,17.38-5.16A33.66,33.66,0,0,0,83,312.41q4.22-9.72,4.21-23a52.61,52.61,0,0,0-4.12-21.51,33,33,0,0,0-11.45-14.27,28.42,28.42,0,0,0-16.43-5,33.51,33.51,0,0,0-15,3.44q-7,3.44-14.2,12v55.4A43.51,43.51,0,0,0,38.73,328.92Z"/><path d="M116.56,328.64q3.34-1.45,4.9-6T123,308.09V209H106v-3a31.77,31.77,0,0,0,14.09-3.18c4.34-2.12,7.26-5,8.75-8.82H132V308q0,10.52,1.12,14.91t4.54,5.78c2.3.92,6.07,1.38,11.34,1.38V333H106V330.1Q113.22,330.1,116.56,328.64Z"/><path d="M169.23,330.33q-6.45-5.25-6.45-14.54,0-15.48,16.9-23.56T219,280.53v-8.95q0-13.24-4.33-19.26t-14.18-6q-8.16,0-12.4,3.1a35.78,35.78,0,0,0-8.16,8.77,29.09,29.09,0,0,1-4.25,5.34,6.75,6.75,0,0,1-4.75,1.72c-3.28,0-4.93-1.61-4.93-4.82q0-3.27,4.42-7.31a36.13,36.13,0,0,1,12.31-6.88,51.56,51.56,0,0,1,17.59-2.84q13.25,0,20.55,6.1T228,271.58l-.16,38.36q0,10.85,1.24,15.32c.84,3,2.53,4.47,5.09,4.47s5.33-1.26,8-3.78l1.67,2.4q-7.5,7.23-14.66,7.23-6.34,0-8.25-4.73A33.18,33.18,0,0,1,219,318.54V318h-.51a65.76,65.76,0,0,1-15.71,13.16,34.06,34.06,0,0,1-17.07,4.39Q175.69,335.58,169.23,330.33Zm7.71-5.28q4.56,4.31,12.82,4.3,15.65,0,29.24-15.82l.18-29.94a111.59,111.59,0,0,0-32.69,10q-14.12,7.06-14.11,20C172.38,318.34,173.9,322.19,176.94,325.05Z"/><path d="M327.56,327.64q3.35-1.45,4.9-6T334,307.09V274.74q0-12.14-5.47-18.64T313,249.6a39.17,39.17,0,0,0-16.15,3.94A59.05,59.05,0,0,0,281,264.14v43.39q0,10.47,1.12,14.85t4.54,5.75c2.3.92,6.07,1.37,11.34,1.37V332H255v-.58q7.22,0,10.56-1.51t4.9-6.17c1-3.11,1.54-8.09,1.54-14.91V258H255v-3a31.77,31.77,0,0,0,14.09-3.18c4.34-2.12,7.26-5,8.75-8.82H281v16.86a68.49,68.49,0,0,1,17.25-12A42.3,42.3,0,0,1,317,243q12,0,18.95,7.48t7,24v32.58q0,10.49,1.18,14.88a7.86,7.86,0,0,0,4.82,5.76q3.63,1.38,12,1.37V332H317V329.1Q324.22,329.1,327.56,327.64Z"/><path d="M390.4,330.69a37.78,37.78,0,0,1-15.57-15q-5.94-10.07-5.93-25,0-14.28,5.93-25a42.43,42.43,0,0,1,15.74-16.52A43.07,43.07,0,0,1,429.36,247a26,26,0,0,1,11.27,9.81,25.52,25.52,0,0,1,3.79,13.59,17,17,0,0,1-.86,6.28,4.85,4.85,0,0,1-3.44,2.67,35.34,35.34,0,0,1-8.26.68h-52a59.34,59.34,0,0,0-.51,7.92,48.8,48.8,0,0,0,4.56,21.5,36.3,36.3,0,0,0,12.73,14.88,33.21,33.21,0,0,0,18.84,5.42A34.36,34.36,0,0,0,435,324.07a51.38,51.38,0,0,0,14.71-15.31l2.06,1.38q-7.9,12.74-17.46,19.09t-23.48,6.37A44.38,44.38,0,0,1,390.4,330.69ZM414.31,277q8.78,0,12.65-.43t5.25-1.64c.91-.8,1.37-2.17,1.37-4.12q0-10.66-5.94-17.47t-17.11-6.79q-10.66,0-19.19,8.09T380.25,277Z"/><path d="M504.91,331.32a20.19,20.19,0,0,1-12.57,3.87q-18.34,0-18.34-22.54V250H458v-2.92q11.5,0,15.8-8T479.13,216H482v30h27v4H483v60.56q0,19.61,12.91,19.61,8.65,0,17.33-13.59l2.37,1.89Q510,327.46,504.91,331.32Z"/><path d="M536.23,330.33q-6.45-5.25-6.45-14.54,0-15.48,16.9-23.56T586,280.53v-8.95q0-13.24-4.33-19.26t-14.18-6q-8.16,0-12.4,3.1a35.78,35.78,0,0,0-8.16,8.77,29.09,29.09,0,0,1-4.25,5.34,6.75,6.75,0,0,1-4.75,1.72c-3.28,0-4.93-1.61-4.93-4.82q0-3.27,4.42-7.31a36.13,36.13,0,0,1,12.31-6.88,51.56,51.56,0,0,1,17.59-2.84q13.24,0,20.55,6.1T595,271.58l-.16,38.36q0,10.85,1.24,15.32c.84,3,2.53,4.47,5.09,4.47s5.33-1.26,8-3.78l1.67,2.4q-7.5,7.23-14.66,7.23-6.34,0-8.25-4.73A33.18,33.18,0,0,1,586,318.54V318h-.51a65.76,65.76,0,0,1-15.71,13.16,34.06,34.06,0,0,1-17.07,4.39Q542.69,335.58,536.23,330.33Zm7.71-5.28q4.56,4.31,12.82,4.3,15.65,0,29.24-15.82l.18-29.94a111.59,111.59,0,0,0-32.69,10q-14.12,7.06-14.11,20C539.38,318.34,540.9,322.19,543.94,325.05Z"/><path d="M632.56,327.67c2.23-1,3.86-3,4.9-6s1.54-7.83,1.54-14.44V258H622v-3.28a32.15,32.15,0,0,0,14-3.1q6.5-3.1,8.72-8.62H648v25h.51A55.85,55.85,0,0,1,660,250.61q7.37-7.59,14.54-7.58a9.37,9.37,0,0,1,6.68,2.41,7.57,7.57,0,0,1,2.56,5.69,5.71,5.71,0,0,1-1.54,4.06,5.15,5.15,0,0,1-3.93,1.63c-1.6,0-3.42-.8-5.48-2.41a21.62,21.62,0,0,0-3-1.82,7,7,0,0,0-3-.59q-3.76,0-8.2,5.08a44,44,0,0,0-7.53,12.76A39,39,0,0,0,648,284.41v22q0,10.59,1.18,15.17t4.36,6c2.13.94,5.61,1.41,10.42,1.41h4v3H622v-2.91Q629.21,329.12,632.56,327.67Z"/><path d="M696,374.71a5.82,5.82,0,0,1-2.68-5,5.68,5.68,0,0,1,1.64-4.21,5.74,5.74,0,0,1,4.23-1.64,10,10,0,0,1,4.14.86c1.26.58,2,.92,2.24,1a13.41,13.41,0,0,0,6.38,1.89q5.85,0,11.29-5.59t12-21.59l2.42-5.68-29-71.57a39,39,0,0,0-4.74-9,12.06,12.06,0,0,0-5.43-4.13A25.89,25.89,0,0,0,690,249V246h44V249q-9.42,0-13.68,1.37T716,255.66a17,17,0,0,0,1.4,5.51l24.75,61.76,22.66-57.12a17.77,17.77,0,0,0,1.39-6.71,8.9,8.9,0,0,0-3.48-7.48Q759.26,249,753,249V246h32V249a13.3,13.3,0,0,0-7.58,1.88,14.52,14.52,0,0,0-4.57,5.34,123.41,123.41,0,0,0-4.91,11.35l-30.18,76.56a74,74,0,0,1-14,23.31q-8.46,9.21-20,9.2Q698.62,376.6,696,374.71Z"/><path d="M994.9,276.57,970.34,334h-2.92L935,263.28a98,98,0,0,0-4.73-9.57,9.35,9.35,0,0,0-3.78-3.71,15.46,15.46,0,0,0-6.44-1V246h38V249q-8.18,0-11.76,1.28a4.86,4.86,0,0,0-3.58,4.91c0,1.83.78,4.53,2.33,8.08l26,58,20.84-49.38-3.67-8.6a74.65,74.65,0,0,0-4.49-9.37,9.55,9.55,0,0,0-4.17-3.79A19.41,19.41,0,0,0,972,249V246h41V249q-8.67,0-12.4,1.37a5.14,5.14,0,0,0-3.73,5.16,21.75,21.75,0,0,0,2.09,7.74l25.49,57.64L1042,275.45q4.33-11.35,4.34-16.69c0-3.55-1.27-6.08-3.81-7.57S1035.78,249,1030,249V246h35V249a10.11,10.11,0,0,0-6.61,2.33q-2.84,2.33-5.84,7.94a153.11,153.11,0,0,0-7.14,16.31L1022.91,334H1020Z"/><path d="M1092.8,330.69a37.72,37.72,0,0,1-15.57-15q-5.94-10.07-5.94-25,0-14.28,5.94-25A42.36,42.36,0,0,1,1093,249.15a43.07,43.07,0,0,1,38.79-2.15,26,26,0,0,1,11.27,9.81,25.6,25.6,0,0,1,3.78,13.59,16.75,16.75,0,0,1-.86,6.28,4.83,4.83,0,0,1-3.44,2.67,35.3,35.3,0,0,1-8.25.68h-52a57.69,57.69,0,0,0-.52,7.92,48.94,48.94,0,0,0,4.56,21.5,36.25,36.25,0,0,0,12.74,14.88,33.21,33.21,0,0,0,18.84,5.42,34.36,34.36,0,0,0,19.52-5.68,51.38,51.38,0,0,0,14.71-15.31l2.06,1.38q-7.92,12.74-17.46,19.09t-23.48,6.37A44.35,44.35,0,0,1,1092.8,330.69ZM1116.71,277q8.77,0,12.64-.43c2.59-.28,4.33-.83,5.25-1.64s1.38-2.17,1.38-4.12q0-10.66-5.94-17.47t-17.12-6.79q-10.67,0-19.18,8.09T1082.64,277Z"/><path d="M1171.56,328.64q3.35-1.45,4.9-6t1.54-14.53V209h-17v-3a31.77,31.77,0,0,0,14.09-3.18c4.34-2.12,7.26-5,8.75-8.82H1187V308q0,10.52,1.12,14.91t4.54,5.78c2.3.92,6.07,1.38,11.34,1.38V333h-43V330.1Q1168.21,330.1,1171.56,328.64Z"/><path d="M1222.56,328.64q3.35-1.45,4.9-6t1.54-14.53V209h-17v-3a31.77,31.77,0,0,0,14.09-3.18c4.34-2.12,7.26-5,8.75-8.82H1238V308q0,10.52,1.12,14.91t4.54,5.78c2.3.92,6.07,1.38,11.34,1.38V333h-43V330.1Q1219.21,330.1,1222.56,328.64Z"/><path d="M1271.09,202.85c4.34-2.12,7.26-5,8.75-8.82H1283v65h.34a51.09,51.09,0,0,1,14.59-11.49,39.48,39.48,0,0,1,18.34-4.11,38.12,38.12,0,0,1,18.41,4.63,34.18,34.18,0,0,1,13.83,14.4q5.27,9.78,5.26,24.18,0,15.62-5.69,26.59a38.81,38.81,0,0,1-15.61,16.55,44.38,44.38,0,0,1-22.15,5.57,40.06,40.06,0,0,1-11.28-1.46,63.49,63.49,0,0,1-10.27-4c-3.63-1.48-5.94-2.22-7-2.22a6.73,6.73,0,0,0-4.42,1.54,18.16,18.16,0,0,0-3.72,4.63l-2.72-1.2a54.05,54.05,0,0,0,2.29-9.61,97.6,97.6,0,0,0,.76-13.72V209h-17v-3A31.77,31.77,0,0,0,1271.09,202.85Zm24,126.07a33.13,33.13,0,0,0,15.65,3.7,29.78,29.78,0,0,0,17.38-5.24q7.58-5.25,11.79-15.23t4.21-23.74a49.4,49.4,0,0,0-4.13-20.73,33.18,33.18,0,0,0-11.44-14,28.18,28.18,0,0,0-16.26-5q-15.48,0-29.24,15.48v54.36A35.19,35.19,0,0,0,1295,328.92Z"/><path d="M1394.2,330.69a37.78,37.78,0,0,1-15.57-15q-5.93-10.07-5.93-25,0-14.28,5.93-25a42.43,42.43,0,0,1,15.74-16.52,43.07,43.07,0,0,1,38.79-2.15,26,26,0,0,1,11.27,9.81,25.52,25.52,0,0,1,3.79,13.59,17,17,0,0,1-.86,6.28,4.85,4.85,0,0,1-3.44,2.67,35.34,35.34,0,0,1-8.26.68h-52a59.34,59.34,0,0,0-.51,7.92,48.94,48.94,0,0,0,4.56,21.5,36.3,36.3,0,0,0,12.73,14.88,33.21,33.21,0,0,0,18.84,5.42,34.41,34.41,0,0,0,19.53-5.68,51.48,51.48,0,0,0,14.7-15.31l2.06,1.38q-7.9,12.74-17.46,19.09t-23.48,6.37A44.38,44.38,0,0,1,1394.2,330.69ZM1418.11,277q8.78,0,12.65-.43T1436,275c.91-.8,1.37-2.17,1.37-4.12q0-10.66-5.94-17.47t-17.11-6.79q-10.66,0-19.19,8.09T1384.05,277Z"/><path d="M1475.56,327.64q3.35-1.45,4.9-6t1.54-14.53V258h-17v-3.14a32,32,0,0,0,14.09-3.14q6.51-3.13,8.75-8.72H1491v64.09q0,10.49,1.12,14.86t4.54,5.75c2.3.92,6.07,1.38,11.34,1.38V332h-43V329.1Q1472.22,329.1,1475.56,327.64Zm4.22-107.53a8.54,8.54,0,0,1,0-11.7,8.1,8.1,0,0,1,11.53,0,8.54,8.54,0,0,1,0,11.7,8.1,8.1,0,0,1-11.53,0Z"/><path d="M1590.56,327.64q3.35-1.45,4.9-6t1.54-14.53V274.74q0-12.14-5.47-18.64T1576,249.6a39.17,39.17,0,0,0-16.15,3.94,59.05,59.05,0,0,0-15.82,10.6v44c0,6.58.35,11.23,1,14s2.12,4.56,4.28,5.42,5.71,1.29,10.67,1.29V332h-43v-.58q7.21,0,10.56-1.51t4.9-6.17c1-3.11,1.54-8.09,1.54-14.91V258h-17v-3a31.77,31.77,0,0,0,14.09-3.18c4.34-2.12,7.26-5,8.75-8.82H1544v16.86a68.49,68.49,0,0,1,17.25-12A42.3,42.3,0,0,1,1580,243q12,0,19,7.48t7,24v32.58q0,10.49,1.12,14.88t4.54,5.76c2.3.92,6.07,1.37,11.34,1.37V332h-43V329.1Q1587.22,329.1,1590.56,327.64Z"/><path d="M1645.44,371.64q-11.18-7-11.18-19.1a22.08,22.08,0,0,1,5.6-14.79q5.58-6.56,15.39-10.32-16.17-2.42-16.17-11.88,0-5,4.56-8.69t13.85-5.07A29.63,29.63,0,0,1,1644,291.47a27.78,27.78,0,0,1-4.9-16.52,28.46,28.46,0,0,1,4.82-16.17,32,32,0,0,1,13.42-11.26,45.05,45.05,0,0,1,19.43-4.05,98.73,98.73,0,0,0,17.38-1.29,142,142,0,0,0,14.11-3.35,33.78,33.78,0,0,1,7.57-1.55q5.16,0,5.16,5a5.73,5.73,0,0,1-1.63,4.21c-1.1,1.09-2.9,1.64-5.43,1.64a69.27,69.27,0,0,1-11-1.38c-.58-.11-2.24-.4-5-.86a48,48,0,0,0-7.92-.69v1.2a43.73,43.73,0,0,1,15.49,10.33q6.18,6.52,6.19,18.23a26.48,26.48,0,0,1-5.07,16.17,31.49,31.49,0,0,1-13.43,10.41,49.8,49.8,0,0,1-31.39,1.81,24.81,24.81,0,0,0-10.33,3c-2.51,1.55-3.78,3.47-3.78,5.76s1.49,4,4.48,5.51,8.83,2.29,17.54,2.41l20.13.34q15.66.36,23.4,5.68t7.74,16.34a30.16,30.16,0,0,1-6,18,41.87,41.87,0,0,1-16.78,13.33,57.12,57.12,0,0,1-24.34,5Q1656.63,378.69,1645.44,371.64Zm8-2.29q8.43,6.45,21.84,6.45a46.17,46.17,0,0,0,19.36-4,35.83,35.83,0,0,0,13.93-10.67,22.64,22.64,0,0,0,5.08-14q0-8.76-5.85-13.41t-18.41-5l-19.61-.51c-3.1,0-6.65-.17-10.67-.52a28.66,28.66,0,0,0-10.32,9.38,21.68,21.68,0,0,0-3.79,12.13Q1645,362.9,1653.47,369.35Zm3.27-74.49q6.71,7.32,18.23,7.31,11.7,0,19.19-7.65t7.48-20.22q0-12.21-6.54-20.21t-19.1-8q-13.24,0-19.61,8.52a32.8,32.8,0,0,0-6.36,20.21Q1650,287.56,1656.74,294.86Z"/></g></g></svg>