<svg xmlns="http://www.w3.org/2000/svg" viewBox="0 0 1080.84 379.15"><g id="Calque_2" data-name="Calque 2"><g id="Layer_1" data-name="Layer 1"><rect y="309.35" width="62.68" height="69.8"/><path d="M124.74,278.32c0-64.08,47-101.08,137.39-114.62C339,152.32,374.6,139.51,374.6,104.62c0-37-39.15-59.79-86.85-59.79-56.23,0-95.38,34.17-99.67,89.69H132.56C138.27,64.77,188.08,0,291.31,0,371,0,433.66,36.28,433.66,140.23V312.48c0,16.38.72,33.45,5.71,54.81H383.12c-3.54-18.52-4.26-37-4.26-53.39V269H376C359.64,313.18,319.07,378,230.8,378,170.29,378,124.74,342.36,124.74,278.32ZM378.86,177.24V150.9h-1.42c-17.1,24.92-44.14,37.73-105.34,50.54-63.35,12.8-90.42,34.16-90.42,71.89,0,40.57,29.91,58.37,66.19,58.37C320.49,331.7,378.86,258.38,378.86,177.24Z"/><path d="M700.93,2.49h0C634,1.77,587,35.25,572.72,104.34h-2.13V11H515V367.15h55.56V188.38c0-84,39.17-136.54,103.27-136.51,40.82,0,61.42,13.43,68.38,19.06V12.79A103.16,103.16,0,0,0,700.93,2.49Z"/><path d="M756.86,189c0-112.93,63.51-187.76,168.68-187.76,87.54,0,141.85,52.24,155.3,137.65h-55.75c-13.45-63.57-48-93.17-102.36-93.17-71.33,0-107.31,55.75-107.31,143.28s36,142.54,107.31,142.54c54.31,0,88.22-28.22,102.36-92.42h55.75c-13.45,82.59-67.76,137.59-155.3,137.59C821.06,376.71,756.86,301.94,756.86,189Z"/></g></g></svg>